<?xml version="1.0" encoding="UTF-8"?>
<svg width="173px" height="62px" viewBox="0 0 173 62" version="1.1" xmlns="http://www.w3.org/2000/svg" xmlns:xlink="http://www.w3.org/1999/xlink">
    <!-- Generator: Sketch 64 (93537) - https://sketch.com -->
    <title>Shape</title>
    <desc>Created with Sketch.</desc>
    <g id="Page-1" stroke="none" stroke-width="1" fill="none" fill-rule="evenodd">
        <g id="2" transform="translate(-51.000000, -28.000000)" fill="#FEFEFE" fill-rule="nonzero">
            <g id="logo-white-cn" transform="translate(52.000000, 28.000000)">
                <path d="M28.1899475,48.6409782 L39.7268111,55.3134147 L28.1899475,61.9989744 L28.1899475,48.6409782 Z M25.8817026,48.6409782 L25.8817026,61.9989744 L14.3535602,55.3207054 L25.8817026,48.6409782 Z M13.5163127,40.135663 L25.3278982,47.015155 L12.6630761,54.3408371 L0.835501517,47.4861334 L13.5163127,40.135663 Z M40.5567909,40.135663 L53.2492305,47.4788427 L41.4143881,54.3379208 L28.7422982,47.015155 L40.5567909,40.135663 Z M138.594986,37.013791 C138.704002,37.2616743 138.855172,37.4818531 139.074659,37.7005737 C137.622557,38.2094636 136.267844,38.511298 135.01052,38.5914956 L135.01052,41.4479866 L138.458351,41.4479866 C138.743248,41.4479866 139.058669,41.4348634 139.388626,41.3925774 C139.346473,41.5165191 139.334845,41.6258794 139.334845,41.7366978 C139.334845,41.8737628 139.346473,41.9962463 139.388626,42.0939415 C139.167686,42.0662369 138.855172,42.0385323 138.458351,42.0385323 L137.622557,42.0385323 L137.622557,48.2297834 C137.622557,48.585569 137.651629,48.9559358 137.731574,49.3408841 C137.583311,49.2723517 137.445224,49.244647 137.307136,49.244647 C137.158873,49.244647 137.007704,49.2723517 136.869616,49.3408841 C136.937933,48.9705172 136.980086,48.6001503 136.980086,48.2297834 L136.980086,42.0385323 L135.01052,42.0385323 L135.01052,42.8055125 C135.01052,44.2213639 134.846268,45.5088992 134.516311,46.6768672 C134.283742,47.4875915 133.927621,48.2983159 133.450855,49.1338286 C133.229915,48.9282312 132.997346,48.7795012 132.766231,48.6949293 C133.340385,47.8448352 133.735752,46.9655784 133.982856,46.0877797 C134.229961,45.2362275 134.366595,44.1382501 134.366595,42.8055125 L134.366595,38.8816649 C134.325895,38.5798305 134.257578,38.2634147 134.174726,37.948457 C134.338977,38.0024081 134.516311,38.0301127 134.695098,38.0301127 C135.379723,38.0301127 135.994576,37.9615803 136.570184,37.8245153 C137.227191,37.6874504 137.910361,37.4118625 138.594986,37.013791 Z M148.878885,36.8087769 C149.153607,36.8350233 149.495192,36.8496047 149.906548,36.8496047 C149.740843,37.0274975 149.659444,37.2476762 149.659444,37.5086828 L149.659444,39.4582124 L153.504096,39.4582124 C153.860217,39.4582124 154.216338,39.4305078 154.571005,39.3459358 C154.488153,39.6783912 154.463442,40.0195953 154.463442,40.3491343 L154.463442,44.1519565 C154.463442,44.4946188 154.488153,44.8387392 154.571005,45.1682783 C154.352972,45.1405737 154.216338,45.1128691 154.148021,45.1128691 C154.063715,45.1128691 153.928534,45.1405737 153.723583,45.1682783 C153.778818,44.8781089 153.804982,44.5908559 153.819517,44.2890215 L149.659444,44.2890215 L149.659444,47.9124928 C149.659444,48.3513921 149.701597,48.7786263 149.796078,49.2175257 C149.631826,49.1621165 149.480657,49.1329537 149.332394,49.1329537 C149.179771,49.1329537 149.031508,49.1621165 148.878885,49.2175257 C148.963191,48.7786263 149.016973,48.3382689 149.016973,47.9124928 L149.016973,44.2890215 L144.952834,44.2890215 C144.952834,44.6054373 144.993533,44.9203949 145.06185,45.2236875 C144.843817,45.1945247 144.691194,45.1682783 144.638866,45.1682783 C144.55456,45.1682783 144.419379,45.1945247 144.199892,45.2236875 C144.26821,44.8926903 144.308909,44.550028 144.308909,44.2073658 L144.308909,40.3491343 C144.308909,40.0195953 144.26821,39.6783912 144.199892,39.3459358 C144.55456,39.4305078 144.912134,39.4582124 145.281337,39.4582124 L149.016973,39.4582124 L149.016973,37.8921729 C149.016973,37.5349293 148.963191,37.1645624 148.878885,36.8087769 Z M121.483158,36.8089227 C121.754973,36.8628738 122.055859,36.8774551 122.384362,36.8774551 C122.234646,37.0699293 122.167782,37.2740685 122.167782,37.5219518 L122.167782,48.4215285 C122.167782,48.7510676 121.975913,48.9552068 121.619792,49.0383206 C121.2753,49.1330995 120.756381,49.1885088 120.047046,49.1885088 C119.977275,48.8604279 119.855177,48.5994213 119.663308,48.3792425 C119.923494,48.4069471 120.100828,48.4215285 120.209844,48.4215285 C121.083431,48.4215285 121.53694,48.3107101 121.53694,48.0905313 L121.53694,37.4271729 C121.53694,37.2186593 121.509322,37.01452 121.483158,36.8089227 Z M81.6750916,36.8637486 C81.9469063,36.8899951 82.2913988,36.9045765 82.6998477,36.9045765 C82.535596,37.0824692 82.4541969,37.302648 82.4541969,37.5490732 L82.4541969,47.8158183 C82.4541969,48.2415944 82.4948965,48.6673705 82.5777491,49.1077279 C82.4265794,49.0523187 82.2754097,49.023156 82.1256936,49.023156 C81.9614419,49.023156 81.8117258,49.0523187 81.6750916,49.1077279 C81.7550371,48.6673705 81.8117258,48.2299293 81.8117258,47.8158183 L81.8117258,46.7747082 C79.82617,47.4046235 78.5543097,47.8843507 77.9946911,48.2299293 C77.9801556,47.9820459 77.8973029,47.6918766 77.7475868,47.3637957 C79.2258519,47.0619612 80.5791114,46.6216038 81.8117258,46.0456395 L81.8117258,41.6537298 L79.1022998,41.6537298 C78.814496,41.6537298 78.4990746,41.6799763 78.1720248,41.709139 C78.1981888,41.5983206 78.2272599,41.4758371 78.2272599,41.3650186 C78.2272599,41.2279537 78.1981888,41.1185934 78.1720248,41.007775 C78.4859926,41.050061 78.7999604,41.0646423 79.1022998,41.0646423 L81.8117258,41.0646423 L81.8117258,37.9486028 C81.8117258,37.5913592 81.7550371,37.2195342 81.6750916,36.8637486 Z M104.300397,40.5408794 C104.23208,40.7756395 104.203009,41.0089415 104.203009,41.2276621 L104.203009,43.4790262 C104.203009,43.7269095 104.23208,43.9733347 104.300397,44.2212181 C103.903577,44.1658088 103.506756,44.1235229 103.123018,44.1235229 L100.701396,44.1235229 L100.701396,48.4337769 C100.701396,48.6554137 100.55168,48.8187251 100.262422,48.9280854 C99.9906076,49.0243225 99.4295355,49.0797317 98.6082771,49.0797317 C98.5951951,48.7924787 98.4992605,48.5445953 98.3204733,48.3244166 L99.7173394,48.3244166 C99.907755,48.3244166 100.00369,48.2427609 100.018225,48.0765332 L100.018225,44.1235229 L97.5951495,44.1235229 C97.1983291,44.1235229 96.8029622,44.1658088 96.4192237,44.2212181 C96.4744588,43.9733347 96.5151583,43.7269095 96.5151583,43.4790262 L96.5151583,41.2276621 C96.4453877,41.0089415 96.4192237,40.7887628 96.4192237,40.5408794 C96.8029622,40.6094119 97.1983291,40.6385746 97.5951495,40.6385746 L103.123018,40.6385746 C103.506756,40.6385746 103.903577,40.6094119 104.300397,40.5408794 Z M131.876656,39.1149669 C132.203706,39.307441 132.506045,39.4313827 132.766231,39.4853338 C132.478427,39.8425774 132.107771,40.5016555 131.655715,41.4479866 L132.724078,41.4479866 C133.080199,41.4479866 133.450855,41.420282 133.805523,41.3371682 C133.750288,41.4756913 133.72267,41.6127562 133.72267,41.7366978 C133.72267,41.8737628 133.750288,42.0108277 133.805523,42.1347693 C133.434866,42.0793601 133.080199,42.0385323 132.724078,42.0385323 L131.053944,42.0385323 L131.053944,43.8072529 L132.559826,43.8072529 C132.915947,43.8072529 133.286604,43.7810064 133.642725,43.6993507 C133.58749,43.8364156 133.558418,43.9603573 133.558418,44.0974222 C133.558418,44.233029 133.58749,44.3700939 133.642725,44.4940356 C133.272068,44.4400845 132.915947,44.3992566 132.559826,44.3992566 L131.053944,44.3992566 L131.053944,48.4339227 C131.053944,48.63952 130.891146,48.7911663 130.59026,48.8874034 C130.302456,48.9705172 129.741384,49.0244683 128.893961,49.0244683 C128.879426,48.7503385 128.798027,48.5155784 128.646857,48.3245624 C129.290782,48.3245624 129.782083,48.3391438 130.139658,48.3391438 C130.302456,48.3391438 130.398391,48.2545718 130.411473,48.1058418 L130.411473,44.3992566 L128.46807,44.3992566 C128.098867,44.3992566 127.742746,44.4400845 127.388079,44.4940356 C127.443314,44.3700939 127.470931,44.233029 127.470931,44.0974222 C127.470931,43.9603573 127.443314,43.8364156 127.388079,43.6993507 C127.742746,43.7810064 128.113403,43.8072529 128.46807,43.8072529 L130.411473,43.8072529 L130.411473,42.0385323 L128.303818,42.0385323 C127.936069,42.0385323 127.579948,42.0793601 127.223827,42.1347693 C127.279062,42.0108277 127.305226,41.8737628 127.305226,41.7366978 C127.305226,41.6127562 127.279062,41.4756913 127.223827,41.3371682 C127.579948,41.420282 127.950604,41.4479866 128.303818,41.4479866 L131.096097,41.4479866 C131.452218,40.6255972 131.712404,39.8425774 131.876656,39.1149669 Z M84.5342337,36.697521 C84.8351195,36.7529302 85.1490874,36.7806348 85.4790443,36.7806348 C85.3409566,36.9045765 85.2857215,37.02706 85.2857215,37.1655831 L85.2857215,41.8870318 C86.586653,41.3241908 87.7901962,40.6388662 88.9108869,39.8150186 C89.0344391,40.0614438 89.2263083,40.3224504 89.5010301,40.5703338 C89.2263083,40.6388662 88.8425698,40.7890544 88.3788859,41.007775 C87.4471573,41.5560346 86.4078657,42.0503432 85.2857215,42.505282 L85.2857215,47.844981 C85.2857215,48.2007665 85.4499732,48.3932406 85.7930121,48.3932406 L87.7756607,48.3932406 C88.2553337,48.3932406 88.5983727,48.2547176 88.8033239,47.9820459 C89.0082751,47.760409 89.1187452,47.1304937 89.1187452,46.0879255 C89.2553794,46.2672764 89.4734126,46.3883018 89.7742984,46.4714156 C89.6376643,47.4323281 89.5010301,48.0374551 89.3353249,48.3101268 C89.0896741,48.7504843 88.6259902,48.9837863 87.9544479,48.9837863 L85.6549244,48.9837863 C85.0124532,48.9837863 84.6708679,48.7081983 84.6432503,48.1730619 L84.6432503,37.3434758 C84.6432503,37.1232971 84.6025508,36.9191579 84.5342337,36.697521 Z M163.583626,39.8557007 C163.912129,39.922775 164.240633,39.9519377 164.582218,39.9519377 C164.447037,40.0890026 164.391802,40.2246094 164.391802,40.3777138 L164.391802,47.8040073 C164.391802,48.161251 164.569136,48.3391438 164.939792,48.3391438 L167.236409,48.3391438 C167.716082,48.3391438 168.059121,48.1743742 168.264072,47.8725398 C168.455941,47.6246565 168.564958,46.9247505 168.564958,45.7567825 C168.700138,45.9492566 168.919625,46.0731983 169.220511,46.1431889 C169.098412,47.2134617 168.960325,47.8842049 168.796073,48.1743742 C168.550422,48.6686828 168.085285,48.9282312 167.40066,48.9282312 L164.787169,48.9282312 C164.090916,48.9282312 163.72026,48.6555596 163.692642,48.118965 L163.692642,40.5570647 C163.692642,40.336886 163.651943,40.1021259 163.583626,39.8557007 Z M117.171915,41.4749622 C117.090516,42.066966 117.048363,42.6152256 117.035281,43.1211993 L116.980046,44.6055831 C116.966964,45.0444824 116.871029,45.3463168 116.706777,45.5373328 C116.475662,45.7983394 116.036689,45.9776903 115.39131,46.0870506 C115.338982,45.8129208 115.25613,45.5256677 115.119496,45.2486216 C115.311365,45.2923658 115.475617,45.3040309 115.58318,45.3040309 C115.791038,45.3040309 115.968372,45.2486216 116.118088,45.1115567 C116.254722,45.0313592 116.323039,44.838885 116.35211,44.5632971 C116.407345,44.2206348 116.432056,43.4099104 116.432056,42.1340403 L113.382498,42.1340403 L113.382498,47.8572294 C113.382498,47.9957524 113.463897,48.0642849 113.655766,48.0642849 L115.667486,48.0642849 C116.105006,48.0642849 116.432056,48.0088756 116.666078,47.9009735 C116.884111,47.8164015 117.144297,47.1719048 117.432101,45.9776903 C117.581817,46.1278785 117.814386,46.2664015 118.115272,46.3757618 C117.732987,47.4751974 117.389948,48.1459406 117.090516,48.4069471 C116.898647,48.5717167 116.542526,48.6548305 116.022153,48.6548305 L113.423197,48.6548305 C112.930442,48.6548305 112.683338,48.5031842 112.683338,48.2290544 L112.683338,42.3673422 C112.683338,42.066966 112.657174,41.7767966 112.603392,41.4749622 C112.875207,41.5289133 113.163011,41.5434946 113.450815,41.5434946 L116.418974,41.5434946 C116.666078,41.5434946 116.911729,41.5289133 117.171915,41.4749622 Z M102.877367,45.441679 C103.780025,46.280108 104.765535,47.1447834 105.860062,48.0371635 C105.669646,48.1611052 105.490859,48.3521212 105.313525,48.6000045 C104.370168,47.5836828 103.370122,46.6913027 102.330831,45.9359876 C102.535782,45.7712181 102.714569,45.6064485 102.877367,45.441679 Z M97.2390286,45.2229584 C97.4599689,45.441679 97.7332372,45.5933253 98.0617405,45.674981 C96.9381428,46.6358935 95.9133867,47.596806 94.9554941,48.5445953 C94.6938543,48.2981701 94.4627391,48.1450657 94.2708699,48.0648681 C94.7912425,47.7484523 95.2839975,47.3780854 95.749135,46.9377279 C96.2956716,46.4988286 96.7898802,45.9228644 97.2390286,45.2229584 Z M128.879426,45.0568766 C129.071295,45.167695 129.318399,45.2639321 129.603296,45.3324645 C129.523351,45.4418248 129.414334,45.6620036 129.276246,45.9915426 C128.866344,46.9101692 128.399753,47.6931889 127.866298,48.3391438 C127.729664,48.161251 127.550877,48.0081466 127.305226,47.9002444 C127.661347,47.513838 128.004386,47.0341108 128.331436,46.4581466 C128.606158,45.9346753 128.798027,45.4695295 128.879426,45.0568766 Z M132.163006,45.0568766 C132.546744,45.8267731 132.956647,46.5398023 133.408702,47.1988803 C133.17468,47.2542896 132.971182,47.3636499 132.779313,47.5284194 C132.41011,46.7322764 131.998754,46.0192472 131.53507,45.3601692 C131.779268,45.3047599 131.985672,45.1953996 132.163006,45.0568766 Z M161.46289,40.7203761 C161.599524,40.7889086 161.85971,40.857441 162.227459,40.9405549 C162.064661,41.2423893 161.928027,41.653584 161.791393,42.1624739 C161.46289,43.5622858 161.202703,44.5786075 160.98467,45.2085229 C160.820418,45.730536 160.696866,46.1825586 160.615467,46.5675069 C160.407609,46.430442 160.161958,46.335663 159.875608,46.2802538 C160.161958,45.7713639 160.519533,44.7710817 160.929435,43.2604514 C161.202703,42.1624739 161.380037,41.3123799 161.46289,40.7203761 Z M-0.000292436975,17.0037722 L12.6834259,24.3527844 L12.6834259,38.6833582 L-0.000292436975,46.0352867 L-0.000292436975,17.0037722 Z M54.073396,17.0241861 L54.073396,46.0134147 L41.3896777,38.6833582 L41.3896777,24.3527844 L54.073396,17.0241861 Z M169.181265,40.6095577 C170.041769,42.258711 170.98658,43.808711 171.999708,45.2362275 C171.724986,45.3047599 171.464799,45.4418248 171.232231,45.6488803 C170.39789,43.9457759 169.467615,42.3811946 168.428324,40.9668013 C168.727756,40.8982689 168.97486,40.7743272 169.181265,40.6095577 Z M118.93653,38.4697411 C119.209799,38.4959876 119.552838,38.510569 119.96274,38.510569 C119.799942,38.6884617 119.717089,38.9086405 119.717089,39.1681889 L119.717089,44.276044 C119.717089,44.7149434 119.757789,45.1538427 119.855177,45.5650374 C119.689472,45.5256677 119.539756,45.496505 119.387132,45.496505 C119.23887,45.496505 119.086246,45.5256677 118.93653,45.5650374 C119.019383,45.1407195 119.074618,44.7149434 119.074618,44.276044 L119.074618,39.5545953 C119.074618,39.1973517 119.019383,38.8269848 118.93653,38.4697411 Z M39.7195433,25.3209876 L39.7195433,38.6833582 L28.1899475,45.3616273 L28.1899475,32.0036311 L39.7195433,25.3209876 Z M14.3535602,25.3209876 L25.8817026,32.0036311 L25.8817026,45.3616273 L14.3535602,38.6833582 L14.3535602,25.3209876 Z M149.016973,40.0472999 L144.952834,40.0472999 L144.952834,43.699934 L149.016973,43.699934 L149.016973,40.0472999 Z M153.818064,40.0472999 L149.659444,40.0472999 L149.659444,43.699934 L153.818064,43.699934 L153.818064,40.0472999 Z M103.561992,41.2276621 L97.1590831,41.2276621 L97.1590831,43.5344354 L103.561992,43.5344354 L103.561992,41.2276621 Z M114.639823,36.8089227 C114.886927,36.9314062 115.187813,37.0422247 115.543934,37.1238803 C115.420382,37.2624034 115.25613,37.481124 115.064261,37.7683771 C116.339028,39.0048775 117.419019,39.9789133 118.320223,40.7065238 C118.074572,40.8989979 117.895785,41.1177185 117.759151,41.3641438 C117.295467,40.8013027 116.721313,40.199092 116.051224,39.5545953 C115.571551,39.1142378 115.106414,38.7161663 114.66744,38.3735041 C113.711001,39.9643319 112.603392,41.324774 111.315543,42.4358747 C111.151291,42.2302773 110.918723,42.0509264 110.630919,41.9138615 C111.548112,41.2154137 112.423152,40.3361569 113.24441,39.2921306 C113.929034,38.3603808 114.394172,37.5219518 114.639823,36.8089227 Z M129.222465,39.3745153 C129.440498,39.922775 129.700684,40.4331231 129.987035,40.8982689 C129.769001,40.9536781 129.578586,41.0499152 129.399798,41.2001033 C129.16723,40.6387204 128.920125,40.1167073 128.646857,39.6501033 C128.866344,39.5946941 129.05676,39.5130384 129.222465,39.3745153 Z M165.130208,36.6434241 C165.868614,37.7282783 166.691326,38.7446 167.564912,39.6909311 C167.306179,39.7594636 167.060529,39.8834053 166.839588,40.0758794 C166.115718,38.9487392 165.307542,37.9207524 164.417966,36.9875445 C164.70577,36.9321353 164.939792,36.8096517 165.130208,36.6434241 Z M100.127242,36.8095059 C100.346729,37.330061 100.564762,37.892902 100.784249,38.4965708 L105.230672,38.4965708 C105.588247,38.4965708 105.954543,38.4688662 106.312117,38.3872105 C106.256882,38.5242755 106.2438,38.6598822 106.2438,38.7838239 C106.2438,38.9208888 106.256882,39.06087 106.312117,39.1979349 C105.942914,39.1294025 105.588247,39.0856583 105.230672,39.0856583 L95.2709155,39.0856583 C94.9002591,39.0856583 94.5455917,39.1294025 94.1894708,39.1979349 C94.2432523,39.06087 94.2708699,38.9208888 94.2708699,38.7838239 C94.2708699,38.6598822 94.2432523,38.5242755 94.1894708,38.3872105 C94.5455917,38.4688662 94.9147946,38.4965708 95.2709155,38.4965708 L100.00369,38.4965708 C99.7580389,37.8783206 99.4978526,37.3592237 99.2507483,36.9319895 C99.5269237,36.9042849 99.826356,36.863457 100.127242,36.8095059 Z M130.959463,36.8096517 C131.083015,37.247093 131.219649,37.7136969 131.383901,38.2211287 L132.559826,38.2211287 C132.915947,38.2211287 133.286604,38.1948822 133.642725,38.1132265 C133.58749,38.2502914 133.558418,38.3873564 133.558418,38.5229631 C133.558418,38.660028 133.58749,38.7839697 133.642725,38.9210346 C133.272068,38.8525022 132.915947,38.8131325 132.559826,38.8131325 L128.742792,38.8131325 C128.375042,38.8131325 128.018922,38.8525022 127.661347,38.9210346 C127.7035,38.7839697 127.729664,38.660028 127.729664,38.5229631 C127.729664,38.3873564 127.7035,38.2502914 127.661347,38.1132265 C128.018922,38.1948822 128.386671,38.2211287 128.742792,38.2211287 L130.739976,38.2211287 C130.575724,37.7136969 130.398391,37.2747976 130.234139,36.919012 C130.452172,36.8898493 130.699276,36.8636028 130.959463,36.8096517 Z M27.035825,16.6377797 L38.5654209,23.3175069 L27.035825,29.9957759 L15.5062291,23.3175069 L27.035825,16.6377797 Z M109.208179,12.3421071 C110.705341,12.3421071 111.913245,12.6658136 112.844973,13.0084758 L112.844973,13.0084758 L112.16471,16.2105454 C110.41899,15.4027374 108.88549,15.462521 108.327325,15.5339697 C107.202274,15.6826997 106.687716,16.2572058 106.674634,16.7996329 C106.638295,18.5771024 112.14436,18.7987392 112.129824,22.7823705 C112.115289,25.9173658 109.439295,27.9485511 105.350445,27.9485511 C103.613447,27.9281372 101.933138,27.565061 101.021759,27.1451174 L101.021759,27.1451174 L101.72964,23.8366038 C102.633752,24.2594636 103.768978,24.8252209 105.725462,24.7887675 C106.846153,24.7712698 108.045336,24.3279961 108.056964,23.3116743 C108.062778,22.6511381 107.552581,22.1743272 106.037977,21.4365097 C104.559711,20.7161898 102.60468,19.5030196 102.627937,17.3303949 C102.652648,14.39079 105.357713,12.3421071 109.208179,12.3421071 Z M101.568296,12.6191532 L98.3515794,27.7108747 L94.4589599,27.7108747 L97.6814906,12.6191532 L101.568296,12.6191532 Z M122.748041,12.6191532 L125.889173,27.7108747 L122.284358,27.7108747 L121.81922,25.4565944 L116.82626,25.4565944 L116.012269,27.7108747 L111.92778,27.7108747 L117.76671,13.7244213 C118.045792,13.0507618 118.675181,12.6191532 119.423762,12.6191532 L119.423762,12.6191532 L122.748041,12.6191532 Z M84.4352466,12.6191532 C85.2797619,12.6191532 86.0370639,13.1819942 86.2303867,14.1545718 L87.87145,22.8858982 L91.9181462,12.6191532 L96.0069956,12.6191532 L89.7043824,27.7108747 L85.5850084,27.7108747 L82.4860298,15.6652021 C82.2970677,14.9200939 82.1299089,14.6532548 81.5601154,14.3397552 C80.6240262,13.8308653 79.0788976,13.3540544 77.7212775,13.0536781 L77.8157585,12.6191532 L84.4352466,12.6191532 Z M119.993555,16.6931889 L117.945497,22.3624269 L121.172388,22.3624269 L119.993555,16.6931889 Z M12.7023221,8.30889916 L25.3671442,15.6666602 L13.8433625,22.35222 L1.15237644,15.0002914 L12.7023221,8.30889916 Z M41.424563,8.33806191 L52.9367162,15.0075821 L40.2399159,22.3463874 L28.7074129,15.6695765 L41.424563,8.33806191 Z M27.035825,-0.0010255814 L39.7195433,7.34944479 L27.035825,14.6999152 L14.3535602,7.34944479 L27.035825,-0.0010255814 Z" id="Shape"></path>
            </g>
        </g>
    </g>
</svg>