<?xml version="1.0" encoding="UTF-8"?>
<svg width="384px" height="384px" viewBox="0 0 384 384" version="1.1" xmlns="http://www.w3.org/2000/svg" xmlns:xlink="http://www.w3.org/1999/xlink">
    <!-- Generator: Sketch 64 (93537) - https://sketch.com -->
    <title>earth2</title>
    <desc>Created with Sketch.</desc>
    <g id="Page-1" stroke="none" stroke-width="1" fill="none" fill-rule="evenodd">
        <g id="2-copy-5" transform="translate(-1151.000000, -693.000000)">
            <g id="earth2" transform="translate(1151.000000, 693.000000)">
                <g transform="translate(192.000000, 192.000000) rotate(90.000000) translate(-192.000000, -192.000000) translate(0.994819, 34.909091)" fill="#2EAB64">
                    <polygon id="Rectangle-Copy-18" transform="translate(191.005181, 296.727273) rotate(90.000000) translate(-191.005181, -296.727273) " points="173.550636 105.722091 208.459727 105.722091 208.459727 487.732454 173.550636 487.732454"></polygon>
                    <polygon id="Rectangle-Copy-9" transform="translate(191.005181, 17.454545) rotate(90.000000) translate(-191.005181, -17.454545) " points="173.550636 -173.550636 208.459727 -173.550636 208.459727 208.459727 173.550636 208.459727"></polygon>
                    <polygon id="Rectangle-Copy-14" transform="translate(191.005181, 157.090909) rotate(90.000000) translate(-191.005181, -157.090909) " points="173.550636 -33.9142723 208.459727 -33.9142723 208.459727 348.09609 173.550636 348.09609"></polygon>
                    <polygon id="Rectangle-Copy-11" transform="translate(191.005181, 87.272727) rotate(90.000000) translate(-191.005181, -87.272727) " points="173.550636 -103.732454 208.459727 -103.732454 208.459727 278.277909 173.550636 278.277909"></polygon>
                    <polygon id="Rectangle-Copy-15" transform="translate(191.005181, 226.909091) rotate(90.000000) translate(-191.005181, -226.909091) " points="173.550636 35.9039096 208.459727 35.9039096 208.459727 417.914272 173.550636 417.914272"></polygon>
                </g>
                <g id="earth2-copy" transform="translate(192.000000, 192.000000) rotate(90.000000) translate(-192.000000, -192.000000) translate(0.994819, 0.000000)" fill="#000000">
                    <polygon id="Rectangle-Copy-18" transform="translate(191.005181, 296.727273) rotate(90.000000) translate(-191.005181, -296.727273) " points="173.550636 105.722091 208.459727 105.722091 208.459727 487.732454 173.550636 487.732454"></polygon>
                    <polygon id="Rectangle-Copy-20" transform="translate(191.005181, 366.046753) rotate(90.000000) translate(-191.005181, -366.046753) " points="173.550636 175.041572 208.459727 175.041572 208.459727 557.051935 173.550636 557.051935"></polygon>
                    <polygon id="Rectangle-Copy-9" transform="translate(191.005181, 17.454545) rotate(90.000000) translate(-191.005181, -17.454545) " points="173.550636 -173.550636 208.459727 -173.550636 208.459727 208.459727 173.550636 208.459727"></polygon>
                    <polygon id="Rectangle-Copy-14" transform="translate(191.005181, 157.090909) rotate(90.000000) translate(-191.005181, -157.090909) " points="173.550636 -33.9142723 208.459727 -33.9142723 208.459727 348.09609 173.550636 348.09609"></polygon>
                    <polygon id="Rectangle-Copy-11" transform="translate(191.005181, 87.272727) rotate(90.000000) translate(-191.005181, -87.272727) " points="173.550636 -103.732454 208.459727 -103.732454 208.459727 278.277909 173.550636 278.277909"></polygon>
                    <polygon id="Rectangle-Copy-15" transform="translate(191.005181, 226.909091) rotate(90.000000) translate(-191.005181, -226.909091) " points="173.550636 35.9039096 208.459727 35.9039096 208.459727 417.914272 173.550636 417.914272"></polygon>
                </g>
            </g>
        </g>
    </g>
</svg>