<?xml version="1.0" encoding="UTF-8"?>
<svg width="143px" height="47px" viewBox="0 0 143 47" version="1.1" xmlns="http://www.w3.org/2000/svg" xmlns:xlink="http://www.w3.org/1999/xlink">
    <!-- Generator: Sketch 64 (93537) - https://sketch.com -->
    <title>Group</title>
    <desc>Created with Sketch.</desc>
    <defs>
        <polygon id="path-1" points="9.66447 0.08844 18.545615 5.24488 9.02292 10.733575 0.1297465 5.5979"></polygon>
        <polygon id="path-3" points="8.961915 10.474847 0.293885 5.468135 8.961915 0.462515"></polygon>
        <polygon id="path-5" points="8.756675 10.75447 0.08647 5.74886 9.64851 0.254695 18.304515 5.25376"></polygon>
        <polygon id="path-7" points="0.294215 10.499765 0.294215 0.484165 8.96225 5.49197 8.96225 15.50539"></polygon>
        <polygon id="path-9" points="8.828505 0.474565 17.4998 5.48237 8.828505 10.48798 0.16047 5.48237"></polygon>
        <polygon id="path-11" points="0 0.249975 9.53691 5.75725 9.53691 16.499665 0 22.00912"></polygon>
        <polygon id="path-13" points="18.57393 5.747655 9.91027 10.758735 0.367896 5.247095 9.05232 0.231635"></polygon>
        <polygon id="path-15" points="19.36607 5.513465 9.828065 11.02074 0.294435 5.513465 9.828065 0.00401"></polygon>
        <polygon id="path-17" points="0.197375 15.5055 0.197375 5.49207 8.86651 0.484265 8.86651 10.49988"></polygon>
        <path d="M9.42185,11.619515 L6.3256,11.619515 L3.99435,2.59081 C3.8523,2.03342 3.7266,1.83233 3.29925,1.59844 C2.595425,1.21591 1.433635,0.85852 0.41283,0.63447 L0.48388,0.308785 L5.46,0.308785 C6.095,0.308785 6.6644,0.73064 6.80975,1.459635 L8.04475,8.004095 L11.0864,0.308785 L14.1619,0.308785 L9.42185,11.619515 Z" id="path-19"></path>
        <path d="M4.6827,3.441655 C4.65645,4.77394 8.7965,4.93898 8.78445,7.925945 C8.77245,10.275745 6.76145,11.7982 3.68595,11.7982 C2.3821,11.78291 1.11645,11.509675 0.4312,11.193815 L0.96565,8.715045 C1.64545,9.030905 2.49795,9.45605 3.9701,9.428725 C4.81055,9.41671 5.71335,9.084465 5.72205,8.323785 C5.72645,7.82759 5.34285,7.470205 4.204,6.914995 C3.0925,6.37508 1.6225,5.466865 1.64,3.838405 C1.65745,1.63614 3.6914,0.099485 6.58765,0.099485 C7.7134,0.099485 8.6216,0.34321 9.3222,0.600045 L8.8107,2.99902 C7.4981,2.394635 6.34505,2.43836 5.92535,2.49299 C5.07835,2.604475 4.69145,3.03509 4.6827,3.441655 Z" id="path-21"></path>
        <polygon id="path-23" points="3.425 11.619515 0.49705 11.619515 2.9201 0.308785 5.84365 0.308785"></polygon>
        <path d="M6.1973,3.36111 L4.6563,7.611525 L7.0848,7.611525 L6.1973,3.36111 Z M3.81585,9.92962 L3.2038,11.619295 L0.13155,11.619295 L4.52295,1.135915 C4.7328,0.630975 5.20605,0.30857 5.7689,0.30857 L8.2695,0.30857 L10.63025,11.619295 L7.9198,11.619295 L7.57005,9.92962 L3.81585,9.92962 Z" id="path-25"></path>
        <polygon id="path-27" points="0.197375 10.474847 0.197375 0.462515 8.871965 5.464855"></polygon>
        <polygon id="path-29" points="0.122275 16.499765 0.122275 5.75737 9.66028 0.265385 9.66028 10.991395 9.66028 21.99393"></polygon>
        <polygon id="path-31" points="0.11247 5.244555 8.99471 0.088105 18.538185 5.591015 9.640635 10.732155"></polygon>
        <path d="M1.5038,7.062157 C2.59345,7.062157 3.61755,6.6697955 3.61755,5.453365 C3.61755,4.33639 2.65465,3.848945 1.5246,3.848945 L0.6251,3.848945 L0.6251,7.0075105 C0.83825,7.050136 1.1224,7.062157 1.5038,7.062157 Z M0.6251,0.752675 L0.6251,3.43691 L1.6623,3.43691 C2.6984,3.43691 3.3432,2.824865 3.3432,2.04124 C3.3432,1.036835 2.58035,0.67726 1.5246,0.67726 C1.0601,0.67726 0.78575,0.71005 0.6251,0.752675 Z M2.6361,3.625985 C3.2372,3.7626 4.14655,4.281745 4.14655,5.44462 C4.14655,6.02715 3.9345,6.46979 3.61755,6.8075055 C3.1421,7.281836 2.3716,7.484028 1.3552,7.484028 C0.81745,7.484028 0.40545,7.4414045 0.11905,7.431569 L0.11905,0.414955 C0.52125,0.31987 1.0273,0.25539 1.55845,0.25539 C2.44375,0.25539 3.02625,0.44556 3.41755,0.846665 C3.7126,1.13301 3.86015,1.514445 3.86015,2.01173 C3.86015,2.73962 3.3432,3.35057 2.6361,3.59429 L2.6361,3.625985 Z" id="path-33"></path>
        <path d="M0.6205,2.43967 L3.82275,2.43967 C3.8326,1.73364 3.5364,0.664755 2.31125,0.664755 C1.191,0.664755 0.71445,1.658225 0.6205,2.43967 Z M2.37355,0.24179 C4.0326,0.24179 4.34955,1.805775 4.34955,2.536945 C4.34955,2.67356 4.34955,2.745695 4.3288,2.840775 L0.5877,2.840775 C0.5877,4.459405 1.47735,5.104235 2.52215,5.104235 C3.2621,5.104235 3.6424,4.9566895 3.9277,4.818981 L4.05445,5.2080645 C3.8643,5.3151715 3.34625,5.5359435 2.4588,5.5359435 C1.0008,5.5359435 0.0915,4.47908 0.0915,2.99051 C0.0915,1.29865 1.0642,0.24179 2.37355,0.24179 Z" id="path-35"></path>
        <path d="M0.4507,0.4672 C0.6857,0.4672 0.8529,0.6683 0.8529,0.91093 C0.8529,1.143725 0.69555,1.34373 0.4409,1.34373 L0.42995,1.34373 C0.19825,1.34373 0.0398,1.143725 0.0398,0.91093 C0.0398,0.67704 0.21905,0.4672 0.4507,0.4672 Z" id="path-37"></path>
        <polygon id="path-39" points="0.1977 0.35764 0.70485 0.35764 0.70485 5.4310215 0.1977 5.4310215"></polygon>
        <path d="M1.52775,4.7440055 L1.52775,0.35917 L2.0349,0.35917 L2.0349,5.0828135 C2.0349,5.9910395 1.92995,6.61401 1.49715,7.0905275 C1.12665,7.4905385 0.49275,7.6293415 0.1649,7.639177 L0.09275,7.2282355 C0.5354,7.2063775 0.91575,7.0686675 1.1474,6.804179 C1.4141,6.4872295 1.52775,6.086124 1.52775,4.7440055 Z" id="path-41"></path>
        <path d="M0.7915,0.466105 C1.02535,0.466105 1.18385,0.678135 1.18385,0.91093 C1.18385,1.133885 1.0352,1.34373 0.7718,1.34373 L0.7609,1.34373 C0.5281,1.34373 0.3707,1.133885 0.3707,0.91093 C0.3707,0.678135 0.54995,0.466105 0.7915,0.466105 Z" id="path-43"></path>
        <path d="M0.53715,0.4672 C0.76995,0.4672 0.93825,0.6683 0.93825,0.91093 C0.93825,1.143725 0.7809,1.34373 0.52735,1.34373 L0.5164,1.34373 C0.2847,1.34373 0.1251,1.143725 0.1251,0.91093 C0.1251,0.67704 0.30435,0.4672 0.53715,0.4672 Z" id="path-45"></path>
        <polygon id="path-47" points="0.2837 0.35764 0.79085 0.35764 0.79085 5.4310215 0.2837 5.4310215"></polygon>
        <path d="M2.27985,0.242115 C2.7651,0.242115 4.05585,0.486935 4.05585,2.38754 L4.05585,5.4302565 L3.54765,5.4302565 L3.54765,2.42907 C3.54765,1.50008 3.18805,0.66508 2.14325,0.66508 C1.4361,0.66508 0.82185,1.173295 0.6197,1.837795 C0.58905,1.95474 0.5574,2.124145 0.5574,2.28043 L0.5574,5.4302565 L0.05025,5.4302565 L0.05025,1.573305 C0.05025,1.10772 0.03935,0.76126 0.00765,0.35906 L0.48305,0.35906 L0.51695,1.267285 L0.5366,1.267285 C0.81095,0.696775 1.4547,0.242115 2.27985,0.242115 Z" id="path-49"></path>
        <path d="M4.31345,3.32877 L4.31345,2.31344 C4.31345,2.122175 4.3025,1.964795 4.24895,1.81725 C4.038,1.21395 3.5112,0.664205 2.6751,0.664205 C1.5997,0.664205 0.8576,1.542925 0.8576,2.88395 C0.8576,4.02606 1.46085,5.008605 2.65325,5.008605 C3.3309,5.008605 3.9659,4.5845465 4.2282,3.867585 C4.2828,3.69818 4.31345,3.509105 4.31345,3.32877 Z M4.3659,1.21395 L4.3976,0.35928 L4.86205,0.35928 C4.83255,0.73962 4.81945,1.14182 4.81945,1.667515 L4.81945,4.691654 C4.81945,5.9911485 4.5451,6.6337915 4.12325,7.037083 C3.65765,7.481905 2.9702,7.6381935 2.3997,7.6381935 C1.82045,7.6381935 1.17455,7.490648 0.78435,7.1955565 L0.9647,6.7944525 C1.32315,7.0272455 1.82045,7.216322 2.47295,7.216322 C3.5418,7.216322 4.31345,6.6676725 4.31345,5.165986 L4.31345,4.44684 L4.29155,4.44684 C4.02705,4.9659795 3.4358,5.431569 2.5276,5.431569 C1.24775,5.431569 0.35045,4.322245 0.35045,2.93641 C0.35045,1.171325 1.51225,0.242335 2.6325,0.242335 C3.6369,0.242335 4.1331,0.790985 4.34405,1.21395 L4.3659,1.21395 Z" id="path-51"></path>
        <polygon id="path-53" points="0.1203 0.09437 0.6263 0.09437 0.6263 7.216995 0.1203 7.216995"></polygon>
        <path d="M3.56345,2.215265 C3.56345,1.286275 3.20385,0.452365 2.15795,0.452365 C1.4497,0.452365 0.8366,0.959485 0.6355,1.62399 C0.6049,1.740925 0.5721,1.910345 0.5721,2.066625 L0.5721,5.21645 L0.06605,5.21645 L0.06605,1.360595 C0.06605,0.893905 0.05515,0.54746 0.02345,0.14526 L0.49885,0.14526 L0.53275,1.054565 L0.5524,1.054565 C0.82675,0.482975 1.4705,0.02831 2.29565,0.02831 C2.7809,0.02831 4.07055,0.273125 4.07055,2.17374 L4.07055,5.21645 L3.56345,5.21645 L3.56345,2.215265 Z" id="path-55"></path>
        <path d="M2.5185,0.02831 C3.00375,0.02831 4.2934,0.273125 4.2934,2.17374 L4.2934,5.21645 L3.7863,5.21645 L3.7863,2.215265 C3.7863,1.286275 3.4267,0.452365 2.38075,0.452365 C1.67365,0.452365 1.0594,0.959485 0.8583,1.62399 C0.8277,1.740925 0.7949,1.910345 0.7949,2.066625 L0.7949,5.21645 L0.2889,5.21645 L0.2889,1.360595 C0.2889,0.893905 0.27795,0.54746 0.24625,0.14526 L0.7217,0.14526 L0.75555,1.053475 L0.77415,1.053475 C1.0496,0.482975 1.6933,0.02831 2.5185,0.02831 Z" id="path-57"></path>
        <path d="M2.4459,4.910215 C3.50385,4.910215 4.33665,3.96046 4.33665,2.659865 C4.33665,1.73087 3.8208,0.452145 2.4765,0.452145 C1.17915,0.452145 0.59775,1.6041 0.59775,2.69266 C0.59775,3.96046 1.39885,4.910215 2.43385,4.910215 L2.4459,4.910215 Z M2.48745,0.02809 C3.8929,0.02809 4.84375,1.08496 4.84375,2.640195 C4.84375,4.52113 3.5432,5.33427 2.42405,5.33427 L2.4142,5.33427 C1.10265,5.33427 0.0895,4.30801 0.0895,2.72217 C0.0895,0.98877 1.23165,0.02809 2.48745,0.02809 Z" id="path-59"></path>
        <path d="M3.19985,3.2954 L4.40645,0.14449 L4.93325,0.14449 L2.872,5.21787 L2.42825,5.21787 L0.4435,0.14449 L0.9812,0.14449 L2.16375,3.2954 C2.36595,3.791595 2.52335,4.21347 2.66105,4.64627 L2.6829,4.64627 C2.8206,4.2244 3.0097,3.778485 3.19985,3.2954 Z" id="path-61"></path>
        <path d="M3.12825,3.58995 L3.12825,2.50139 C2.01675,2.47079 0.5599,2.639105 0.5599,3.853345 C0.5599,4.582335 1.04625,4.910215 1.5741,4.910215 C2.42115,4.910215 2.9064,4.39107 3.0736,3.894885 C3.11625,3.79215 3.12825,3.674105 3.12825,3.58995 Z M1.88015,0.02809 C3.34905,0.02809 3.6343,1.127575 3.6343,2.02488 L3.6343,4.014005 C3.6343,4.41293 3.6474,4.82715 3.7075,5.21623 L3.243,5.21623 L3.1698,4.48725 L3.15015,4.48725 C2.89435,4.87961 2.3337,5.33427 1.52055,5.33427 C0.4976,5.33427 0.0309,4.61512 0.0309,3.9375 C0.0309,2.764785 1.05605,2.058755 3.12825,2.078425 L3.12825,1.940725 C3.12825,1.44453 3.0321,0.440125 1.82875,0.451055 C1.38285,0.451055 0.91945,0.566915 0.55005,0.832495 L0.3905,0.46309 C0.85605,0.15488 1.4255,0.02809 1.88015,0.02809 Z" id="path-63"></path>
        <path d="M1.52815,0.02402 L1.52815,1.14427 L2.9752,1.14427 L2.9752,1.55631 L1.52815,1.55631 L1.52815,4.85368 C1.52815,5.4996 1.73035,5.89961 2.26915,5.89961 C2.53145,5.89961 2.72385,5.8701 2.8484,5.82748 L2.914,6.206725 C2.7435,6.270115 2.5107,6.32476 2.2047,6.32476 C1.8353,6.32476 1.52815,6.206725 1.3369,5.972835 C1.1052,5.70944 1.01995,5.277735 1.01995,4.7586 L1.01995,1.55631 L0.1642,1.55631 L0.1642,1.14427 L1.01995,1.14427 L1.01995,0.21637 L1.52815,0.02402 Z" id="path-65"></path>
        <path d="M0.90795,0.25285 C1.14185,0.25285 1.30905,0.45394 1.30905,0.697665 C1.30905,0.929375 1.1528,1.130465 0.89705,1.130465 L0.8861,1.130465 C0.6555,1.130465 0.4959,0.929375 0.4959,0.697665 C0.4959,0.46378 0.67515,0.25285 0.90795,0.25285 Z" id="path-67"></path>
        <polygon id="path-69" points="0.15485 0.144705 0.66195 0.144705 0.66195 5.216995 0.15485 5.216995"></polygon>
        <path d="M2.8549,4.910215 C3.91175,4.910215 4.74565,3.96046 4.74565,2.659865 C4.74565,1.73087 4.2298,0.452145 2.8855,0.452145 C1.5871,0.452145 1.00675,1.6041 1.00675,2.69266 C1.00675,3.96046 1.80785,4.910215 2.84395,4.910215 L2.8549,4.910215 Z M2.8975,0.02809 C4.30195,0.02809 5.2528,1.08496 5.2528,2.640195 C5.2528,4.52113 3.9533,5.33427 2.833,5.33427 L2.8243,5.33427 C1.5117,5.33427 0.4996,4.30801 0.4996,2.72217 C0.4996,0.98877 1.64065,0.02809 2.8975,0.02809 Z" id="path-71"></path>
        <path d="M2.33085,0.02831 C2.8161,0.02831 4.10685,0.273125 4.10685,2.17374 L4.10685,5.21645 L3.59865,5.21645 L3.59865,2.215265 C3.59865,1.286275 3.2391,0.452365 2.1942,0.452365 C1.4871,0.452365 0.8729,0.959485 0.6707,1.62399 C0.6401,1.740925 0.6084,1.910345 0.6084,2.066625 L0.6084,5.21645 L0.10125,5.21645 L0.10125,1.360595 C0.10125,0.893905 0.09145,0.54746 0.05865,0.14526 L0.53405,0.14526 L0.56795,1.053475 L0.5876,1.053475 C0.86195,0.482975 1.50675,0.02831 2.33085,0.02831 Z" id="path-73"></path>
        <path d="M2.45265,3.796325 C3.6254,4.27176 4.24725,4.81166 4.24725,5.86853 C4.24725,6.904625 3.50845,7.823775 1.9871,7.823775 C1.37395,7.823775 0.6537,7.621585 0.2854,7.34835 L0.47445,6.93413 C0.87665,7.20955 1.43735,7.400815 2.0275,7.400815 C3.0953,7.400815 3.75,6.797515 3.75,5.91989 C3.75,5.128615 3.33905,4.65209 2.30405,4.263015 C1.16195,3.849885 0.47445,3.25861 0.47445,2.297925 C0.47445,1.24871 1.33135,0.48912 2.54775,0.48912 C3.21335,0.48912 3.72045,0.65743 3.962,0.81591 L3.77295,1.24871 C3.58275,1.1121 3.1281,0.91099 2.51495,0.91099 C1.363,0.91099 0.97175,1.65091 0.97175,2.21268 C0.97175,2.99412 1.4264,3.395235 2.45265,3.796325 Z" id="path-75"></path>
        <path d="M1.856,0.02402 L1.856,1.14427 L3.30305,1.14427 L3.30305,1.55631 L1.856,1.55631 L1.856,4.85368 C1.856,5.4996 2.0582,5.89961 2.597,5.89961 C2.8593,5.89961 3.05165,5.8701 3.17735,5.82748 L3.24185,6.206725 C3.07135,6.270115 2.83745,6.32476 2.5325,6.32476 C2.162,6.32476 1.856,6.206725 1.6647,5.972835 C1.43305,5.70944 1.3478,5.277735 1.3478,4.7586 L1.3478,1.55631 L0.492,1.55631 L0.492,1.14427 L1.3478,1.14427 L1.3478,0.21637 L1.856,0.02402 Z" id="path-77"></path>
        <path d="M4.3912,0.144705 L4.3912,3.98089 C4.3912,4.424625 4.4043,4.82573 4.4338,5.21809 L3.9584,5.21809 L3.9267,4.309865 L3.907,4.309865 C3.65235,4.783105 3.07095,5.33285 2.17475,5.33285 C1.5277,5.33285 0.44135,5.006065 0.44135,3.093435 L0.44135,0.144705 L0.94955,0.144705 L0.94955,2.998355 C0.94955,4.09566 1.2851,4.88912 2.2884,4.88912 C3.0294,4.88912 3.5682,4.37107 3.7901,3.865045 C3.84255,3.705475 3.88515,3.504385 3.88515,3.305455 L3.88515,0.144705 L4.3912,0.144705 Z" id="path-79"></path>
        <path d="M4.1926,5.66732 L4.1926,4.65199 C4.1926,4.514275 4.18275,4.335035 4.14015,4.187485 C3.97075,3.50987 3.36745,2.95139 2.54445,2.95139 C1.43625,2.95139 0.73785,3.91316 0.73785,5.222485 C0.73785,6.364605 1.30725,7.41054 2.5117,7.41054 C3.24175,7.41054 3.9292,6.924185 4.14015,6.090285 C4.18275,5.962405 4.1926,5.8258 4.1926,5.66732 Z M4.6997,0.20375 L4.6997,6.543845 C4.6997,6.913255 4.71175,7.35808 4.74125,7.717655 L4.28765,7.717655 L4.24505,6.755875 L4.2232,6.755875 C3.9609,7.31655 3.3576,7.83241 2.4166,7.83241 C1.1608,7.83241 0.22965,6.786475 0.22965,5.276045 C0.2198,3.58528 1.26465,2.529515 2.5117,2.529515 C3.3904,2.529515 3.94885,2.98417 4.17075,3.426805 L4.1926,3.426805 L4.1926,0.20375 L4.6997,0.20375 Z" id="path-81"></path>
        <path d="M0.7126,0.25285 C0.9454,0.25285 1.1137,0.45394 1.1137,0.697665 C1.1137,0.929375 0.9574,1.130465 0.70275,1.130465 L0.69185,1.130465 C0.46125,1.130465 0.30055,0.929375 0.30055,0.697665 C0.30055,0.46378 0.4798,0.25285 0.7126,0.25285 Z" id="path-83"></path>
        <polygon id="path-85" points="0.4606 0.144705 0.9666 0.144705 0.9666 5.216995 0.4606 5.216995"></polygon>
        <path d="M2.65965,4.910215 C3.7176,4.910215 4.5515,3.96046 4.5515,2.659865 C4.5515,1.73087 4.03455,0.452145 2.69135,0.452145 C1.39075,0.452145 0.8126,1.6041 0.8126,2.69266 C0.8126,3.96046 1.6126,4.910215 2.6487,4.910215 L2.65965,4.910215 Z M2.70225,0.02809 C4.1067,0.02809 5.05755,1.08496 5.05755,2.640195 C5.05755,4.52113 3.75915,5.33427 2.63775,5.33427 L2.62905,5.33427 C1.31645,5.33427 0.30435,4.30801 0.30435,2.72217 C0.30435,0.98877 1.4465,0.02809 2.70225,0.02809 Z" id="path-87"></path>
    </defs>
    <g id="Page-1" stroke="none" stroke-width="1" fill="none" fill-rule="evenodd">
        <g id="同事-copy" transform="translate(-891.000000, -984.000000)">
            <g id="Group" transform="translate(891.000000, 983.500000)">
                <g id="Group-133">
                    <g id="Group-3" transform="translate(0.500000, 30.495990)">
                        <mask id="mask-2" fill="white">
                            <use xlink:href="#path-1"></use>
                        </mask>
                        <g id="Clip-2"></g>
                        <polygon id="Fill-1" fill="#019A8E" mask="url(#mask-2)" points="-8.262395 -8.3037 26.937755 -8.3037 26.937755 19.1257175 -8.262395 19.1257175"></polygon>
                    </g>
                    <g id="Group-6" transform="translate(10.500000, 36.495990)">
                        <mask id="mask-4" fill="white">
                            <use xlink:href="#path-3"></use>
                        </mask>
                        <g id="Clip-5"></g>
                        <polygon id="Fill-4" fill="#019A8E" mask="url(#mask-4)" points="-8.0982545 -7.929635 17.354055 -7.929635 17.354055 18.86699 -8.0982545 18.86699"></polygon>
                    </g>
                    <g id="Group-9" transform="translate(21.500000, 6.495990)">
                        <mask id="mask-6" fill="white">
                            <use xlink:href="#path-5"></use>
                        </mask>
                        <g id="Clip-8"></g>
                        <polygon id="Fill-7" fill="#019A8E" mask="url(#mask-6)" points="-8.30568 -8.137445 26.69666 -8.137445 26.69666 19.146615 -8.30568 19.146615"></polygon>
                    </g>
                    <g id="Group-12" transform="translate(10.500000, 18.995990)">
                        <mask id="mask-8" fill="white">
                            <use xlink:href="#path-7"></use>
                        </mask>
                        <g id="Clip-11"></g>
                        <polygon id="Fill-10" fill="#019A8E" mask="url(#mask-8)" points="-8.0979275 -7.90798 17.35439 -7.90798 17.35439 23.8975315 -8.0979275 23.8975315"></polygon>
                    </g>
                    <g id="Group-15" transform="translate(11.500000, 12.495990)">
                        <mask id="mask-10" fill="white">
                            <use xlink:href="#path-9"></use>
                        </mask>
                        <g id="Clip-14"></g>
                        <polygon id="Fill-13" fill="#019A8E" mask="url(#mask-10)" points="-8.2316705 -7.91758 25.891945 -7.91758 25.891945 18.880125 -8.2316705 18.880125"></polygon>
                    </g>
                    <g id="Group-18" transform="translate(0.000000, 12.995990)">
                        <mask id="mask-12" fill="white">
                            <use xlink:href="#path-11"></use>
                        </mask>
                        <g id="Clip-17"></g>
                        <polygon id="Fill-16" fill="#019A8E" mask="url(#mask-12)" points="-8.39214 -8.142165 17.929055 -8.142165 17.929055 30.401263 -8.39214 30.401263"></polygon>
                    </g>
                    <g id="Group-21" transform="translate(0.500000, 6.495990)">
                        <mask id="mask-14" fill="white">
                            <use xlink:href="#path-13"></use>
                        </mask>
                        <g id="Clip-20"></g>
                        <polygon id="Fill-19" fill="#019A8E" mask="url(#mask-14)" points="-8.024245 -8.16051 26.96607 -8.16051 26.96607 19.150875 -8.024245 19.150875"></polygon>
                    </g>
                    <g id="Group-24" transform="translate(10.500000, 0.495990)">
                        <mask id="mask-16" fill="white">
                            <use xlink:href="#path-15"></use>
                        </mask>
                        <g id="Clip-23"></g>
                        <polygon id="Fill-22" fill="#019A8E" mask="url(#mask-16)" points="-8.097709 -8.38815 27.758215 -8.38815 27.758215 19.412885 -8.097709 19.412885"></polygon>
                    </g>
                    <g id="Group-27" transform="translate(21.000000, 18.995990)">
                        <mask id="mask-18" fill="white">
                            <use xlink:href="#path-17"></use>
                        </mask>
                        <g id="Clip-26"></g>
                        <polygon id="Fill-25" fill="#019A8E" mask="url(#mask-18)" points="-8.194765 -7.90788 17.25865 -7.90788 17.25865 23.8976405 -8.194765 23.8976405"></polygon>
                    </g>
                    <g id="Group-30" transform="translate(47.000000, 5.995990)">
                        <mask id="mask-20" fill="white">
                            <use xlink:href="#path-19"></use>
                        </mask>
                        <g id="Clip-29"></g>
                        <polygon id="Fill-28" fill="#019A8E" mask="url(#mask-20)" points="-7.97931 -8.083355 22.55405 -8.083355 22.55405 20.011655 -7.97931 20.011655"></polygon>
                    </g>
                    <g id="Group-33" transform="translate(64.500000, 5.995990)">
                        <mask id="mask-22" fill="white">
                            <use xlink:href="#path-21"></use>
                        </mask>
                        <g id="Clip-32"></g>
                        <polygon id="Fill-31" fill="#019A8E" mask="url(#mask-22)" points="-7.96095 -8.292655 17.7143 -8.292655 17.7143 20.19034 -7.96095 20.19034"></polygon>
                    </g>
                    <g id="Group-36" transform="translate(59.500000, 5.995990)">
                        <mask id="mask-24" fill="white">
                            <use xlink:href="#path-23"></use>
                        </mask>
                        <g id="Clip-35"></g>
                        <polygon id="Fill-34" fill="#019A8E" mask="url(#mask-24)" points="-7.8951 -8.083355 14.2358 -8.083355 14.2358 20.011655 -7.8951 20.011655"></polygon>
                    </g>
                    <g id="Group-39" transform="translate(73.000000, 5.995990)">
                        <mask id="mask-26" fill="white">
                            <use xlink:href="#path-25"></use>
                        </mask>
                        <g id="Clip-38"></g>
                        <polygon id="Fill-37" fill="#019A8E" mask="url(#mask-26)" points="-8.2606 -8.083575 19.0224 -8.083575 19.0224 20.011435 -8.2606 20.011435"></polygon>
                    </g>
                    <g id="Group-42" transform="translate(21.000000, 36.495990)">
                        <mask id="mask-28" fill="white">
                            <use xlink:href="#path-27"></use>
                        </mask>
                        <g id="Clip-41"></g>
                        <polygon id="Fill-40" fill="#019A8E" mask="url(#mask-28)" points="-8.194765 -7.929635 17.264105 -7.929635 17.264105 18.86699 -8.194765 18.86699"></polygon>
                    </g>
                    <g id="Group-45" transform="translate(31.000000, 12.995990)">
                        <mask id="mask-30" fill="white">
                            <use xlink:href="#path-29"></use>
                        </mask>
                        <g id="Clip-44"></g>
                        <polygon id="Fill-43" fill="#019A8E" mask="url(#mask-30)" points="-8.269865 -8.126755 18.05242 -8.126755 18.05242 30.3860715 -8.269865 30.3860715"></polygon>
                    </g>
                    <g id="Group-48" transform="translate(21.500000, 30.495990)">
                        <mask id="mask-32" fill="white">
                            <use xlink:href="#path-31"></use>
                        </mask>
                        <g id="Clip-47"></g>
                        <polygon id="Fill-46" fill="#019A8E" mask="url(#mask-32)" points="-8.27967 -8.304035 26.93033 -8.304035 26.93033 19.1242975 -8.27967 19.1242975"></polygon>
                    </g>
                    <g id="Group-51" transform="translate(51.000000, 35.995990)">
                        <mask id="mask-34" fill="white">
                            <use xlink:href="#path-33"></use>
                        </mask>
                        <g id="Clip-50"></g>
                        <polygon id="Fill-49" fill="#019A8E" mask="url(#mask-34)" points="-8.27307 -8.136755 12.53865 -8.136755 12.53865 15.8761695 -8.27307 15.8761695"></polygon>
                    </g>
                    <g id="Group-54" transform="translate(57.000000, 37.995990)">
                        <mask id="mask-36" fill="white">
                            <use xlink:href="#path-35"></use>
                        </mask>
                        <g id="Clip-53"></g>
                        <polygon id="Fill-52" fill="#019A8E" mask="url(#mask-36)" points="-8.300635 -8.15035 12.7417 -8.15035 12.7417 13.928085 -8.300635 13.928085"></polygon>
                    </g>
                    <g id="Group-57" transform="translate(63.500000, 35.995990)">
                        <mask id="mask-38" fill="white">
                            <use xlink:href="#path-37"></use>
                        </mask>
                        <g id="Clip-56"></g>
                        <polygon id="Fill-55" fill="#019A8E" mask="url(#mask-38)" points="-8.35235 -7.924935 9.24505 -7.924935 9.24505 9.735871 -8.35235 9.735871"></polygon>
                    </g>
                    <g id="Group-60" transform="translate(63.500000, 37.995990)">
                        <mask id="mask-40" fill="white">
                            <use xlink:href="#path-39"></use>
                        </mask>
                        <g id="Clip-59"></g>
                        <polygon id="Fill-58" fill="#019A8E" mask="url(#mask-40)" points="-8.19445 -8.034505 9.097 -8.034505 9.097 13.823163 -8.19445 13.823163"></polygon>
                    </g>
                    <g id="Group-63" transform="translate(65.500000, 37.995990)">
                        <mask id="mask-42" fill="white">
                            <use xlink:href="#path-41"></use>
                        </mask>
                        <g id="Clip-62"></g>
                        <polygon id="Fill-61" fill="#019A8E" mask="url(#mask-42)" points="-8.2994 -8.03298 10.42705 -8.03298 10.42705 16.03132 -8.2994 16.03132"></polygon>
                    </g>
                    <g id="Group-66" transform="translate(66.500000, 35.995990)">
                        <mask id="mask-44" fill="white">
                            <use xlink:href="#path-43"></use>
                        </mask>
                        <g id="Clip-65"></g>
                        <polygon id="Fill-64" fill="#019A8E" mask="url(#mask-44)" points="-8.0214 -7.92603 9.576 -7.92603 9.576 9.735871 -8.0214 9.735871"></polygon>
                    </g>
                    <g id="Group-69" transform="translate(70.000000, 35.995990)">
                        <mask id="mask-46" fill="white">
                            <use xlink:href="#path-45"></use>
                        </mask>
                        <g id="Clip-68"></g>
                        <polygon id="Fill-67" fill="#019A8E" mask="url(#mask-46)" points="-8.267 -7.924935 9.3304 -7.924935 9.3304 9.735871 -8.267 9.735871"></polygon>
                    </g>
                    <g id="Group-72" transform="translate(70.000000, 37.995990)">
                        <mask id="mask-48" fill="white">
                            <use xlink:href="#path-47"></use>
                        </mask>
                        <g id="Clip-71"></g>
                        <polygon id="Fill-70" fill="#019A8E" mask="url(#mask-48)" points="-8.1084 -8.034505 9.183 -8.034505 9.183 13.823163 -8.1084 13.823163"></polygon>
                    </g>
                    <g id="Group-75" transform="translate(73.500000, 37.995990)">
                        <mask id="mask-50" fill="white">
                            <use xlink:href="#path-49"></use>
                        </mask>
                        <g id="Clip-74"></g>
                        <polygon id="Fill-73" fill="#019A8E" mask="url(#mask-50)" points="-8.3845 -8.150015 12.448 -8.150015 12.448 13.8223975 -8.3845 13.8223975"></polygon>
                    </g>
                    <g id="Group-78" transform="translate(79.500000, 37.995990)">
                        <mask id="mask-52" fill="white">
                            <use xlink:href="#path-51"></use>
                        </mask>
                        <g id="Clip-77"></g>
                        <polygon id="Fill-76" fill="#019A8E" mask="url(#mask-52)" points="-8.0417 -8.1498 13.2542 -8.1498 13.2542 16.030335 -8.0417 16.030335"></polygon>
                    </g>
                    <g id="Group-81" transform="translate(51.000000, 24.495990)">
                        <mask id="mask-54" fill="white">
                            <use xlink:href="#path-53"></use>
                        </mask>
                        <g id="Clip-80"></g>
                        <polygon id="Fill-79" fill="#019A8E" mask="url(#mask-54)" points="-8.271865 -8.29777 9.01845 -8.29777 9.01845 15.60914 -8.271865 15.60914"></polygon>
                    </g>
                    <g id="Group-84" transform="translate(54.500000, 26.495990)">
                        <mask id="mask-56" fill="white">
                            <use xlink:href="#path-55"></use>
                        </mask>
                        <g id="Clip-83"></g>
                        <polygon id="Fill-82" fill="#019A8E" mask="url(#mask-56)" points="-8.3687 -8.363835 12.4627 -8.363835 12.4627 13.608595 -8.3687 13.608595"></polygon>
                    </g>
                    <g id="Group-87" transform="translate(61.000000, 26.495990)">
                        <mask id="mask-58" fill="white">
                            <use xlink:href="#path-57"></use>
                        </mask>
                        <g id="Clip-86"></g>
                        <polygon id="Fill-85" fill="#019A8E" mask="url(#mask-58)" points="-8.14585 -8.363835 12.68555 -8.363835 12.68555 13.608595 -8.14585 13.608595"></polygon>
                    </g>
                    <g id="Group-90" transform="translate(67.500000, 26.495990)">
                        <mask id="mask-60" fill="white">
                            <use xlink:href="#path-59"></use>
                        </mask>
                        <g id="Clip-89"></g>
                        <polygon id="Fill-88" fill="#019A8E" mask="url(#mask-60)" points="-8.3026 -8.36405 13.2359 -8.36405 13.2359 13.72641 -8.3026 13.72641"></polygon>
                    </g>
                    <g id="Group-93" transform="translate(73.500000, 26.495990)">
                        <mask id="mask-62" fill="white">
                            <use xlink:href="#path-61"></use>
                        </mask>
                        <g id="Clip-92"></g>
                        <polygon id="Fill-91" fill="#019A8E" mask="url(#mask-62)" points="-7.94865 -8.247655 13.3254 -8.247655 13.3254 13.610015 -7.94865 13.610015"></polygon>
                    </g>
                    <g id="Group-96" transform="translate(80.000000, 26.495990)">
                        <mask id="mask-64" fill="white">
                            <use xlink:href="#path-63"></use>
                        </mask>
                        <g id="Clip-95"></g>
                        <polygon id="Fill-94" fill="#019A8E" mask="url(#mask-64)" points="-8.36125 -8.36405 12.09965 -8.36405 12.09965 13.72641 -8.36125 13.72641"></polygon>
                    </g>
                    <g id="Group-99" transform="translate(85.500000, 25.495990)">
                        <mask id="mask-66" fill="white">
                            <use xlink:href="#path-65"></use>
                        </mask>
                        <g id="Clip-98"></g>
                        <polygon id="Fill-97" fill="#019A8E" mask="url(#mask-66)" points="-8.22795 -8.36812 11.36735 -8.36812 11.36735 14.7169 -8.22795 14.7169"></polygon>
                    </g>
                    <g id="Group-102" transform="translate(90.000000, 24.495990)">
                        <mask id="mask-68" fill="white">
                            <use xlink:href="#path-67"></use>
                        </mask>
                        <g id="Clip-101"></g>
                        <polygon id="Fill-100" fill="#019A8E" mask="url(#mask-68)" points="-7.8962 -8.13929 9.7012 -8.13929 9.7012 9.52261 -7.8962 9.52261"></polygon>
                    </g>
                    <g id="Group-105" transform="translate(90.500000, 26.495990)">
                        <mask id="mask-70" fill="white">
                            <use xlink:href="#path-69"></use>
                        </mask>
                        <g id="Clip-104"></g>
                        <polygon id="Fill-103" fill="#019A8E" mask="url(#mask-70)" points="-8.2373 -8.247435 9.0541 -8.247435 9.0541 13.60914 -8.2373 13.60914"></polygon>
                    </g>
                    <g id="Group-108" transform="translate(93.000000, 26.495990)">
                        <mask id="mask-72" fill="white">
                            <use xlink:href="#path-71"></use>
                        </mask>
                        <g id="Clip-107"></g>
                        <polygon id="Fill-106" fill="#019A8E" mask="url(#mask-72)" points="-7.8925 -8.36405 13.6449 -8.36405 13.6449 13.72641 -7.8925 13.72641"></polygon>
                    </g>
                    <g id="Group-111" transform="translate(100.500000, 26.495990)">
                        <mask id="mask-74" fill="white">
                            <use xlink:href="#path-73"></use>
                        </mask>
                        <g id="Clip-110"></g>
                        <polygon id="Fill-109" fill="#019A8E" mask="url(#mask-74)" points="-8.3335 -8.363835 12.499 -8.363835 12.499 13.608595 -8.3335 13.608595"></polygon>
                    </g>
                    <g id="Group-114" transform="translate(110.000000, 23.995990)">
                        <mask id="mask-76" fill="white">
                            <use xlink:href="#path-75"></use>
                        </mask>
                        <g id="Clip-113"></g>
                        <polygon id="Fill-112" fill="#019A8E" mask="url(#mask-76)" points="-8.10675 -7.903025 12.6394 -7.903025 12.6394 16.21592 -8.10675 16.21592"></polygon>
                    </g>
                    <g id="Group-117" transform="translate(115.500000, 25.495990)">
                        <mask id="mask-78" fill="white">
                            <use xlink:href="#path-77"></use>
                        </mask>
                        <g id="Clip-116"></g>
                        <polygon id="Fill-115" fill="#019A8E" mask="url(#mask-78)" points="-7.9001 -8.36812 11.6952 -8.36812 11.6952 14.7169 -7.9001 14.7169"></polygon>
                    </g>
                    <g id="Group-120" transform="translate(120.500000, 26.495990)">
                        <mask id="mask-80" fill="white">
                            <use xlink:href="#path-79"></use>
                        </mask>
                        <g id="Clip-119"></g>
                        <polygon id="Fill-118" fill="#019A8E" mask="url(#mask-80)" points="-7.9508 -8.247435 12.82595 -8.247435 12.82595 13.72499 -7.9508 13.72499"></polygon>
                    </g>
                    <g id="Group-123" transform="translate(127.000000, 23.995990)">
                        <mask id="mask-82" fill="white">
                            <use xlink:href="#path-81"></use>
                        </mask>
                        <g id="Clip-122"></g>
                        <polygon id="Fill-121" fill="#019A8E" mask="url(#mask-82)" points="-8.16255 -8.18839 13.1334 -8.18839 13.1334 16.22455 -8.16255 16.22455"></polygon>
                    </g>
                    <g id="Group-126" transform="translate(134.000000, 24.495990)">
                        <mask id="mask-84" fill="white">
                            <use xlink:href="#path-83"></use>
                        </mask>
                        <g id="Clip-125"></g>
                        <polygon id="Fill-124" fill="#019A8E" mask="url(#mask-84)" points="-8.09155 -8.13929 9.50585 -8.13929 9.50585 9.52261 -8.09155 9.52261"></polygon>
                    </g>
                    <g id="Group-129" transform="translate(134.000000, 26.495990)">
                        <mask id="mask-86" fill="white">
                            <use xlink:href="#path-85"></use>
                        </mask>
                        <g id="Clip-128"></g>
                        <polygon id="Fill-127" fill="#019A8E" mask="url(#mask-86)" points="-7.93155 -8.247435 9.35875 -8.247435 9.35875 13.60914 -7.93155 13.60914"></polygon>
                    </g>
                    <g id="Group-132" transform="translate(137.000000, 26.495990)">
                        <mask id="mask-88" fill="white">
                            <use xlink:href="#path-87"></use>
                        </mask>
                        <g id="Clip-131"></g>
                        <polygon id="Fill-130" fill="#019A8E" mask="url(#mask-88)" points="-8.08775 -8.36405 13.44965 -8.36405 13.44965 13.72641 -8.08775 13.72641"></polygon>
                    </g>
                </g>
            </g>
        </g>
    </g>
</svg>